<?xml version="1.0" standalone="no"?>
<!DOCTYPE svg PUBLIC "-//W3C//DTD SVG 20010904//EN"
 "http://www.w3.org/TR/2001/REC-SVG-20010904/DTD/svg10.dtd">
<svg version="1.0" xmlns="http://www.w3.org/2000/svg"
 width="30pt" height="30pt" viewBox="0 0 563.000000 443.000000"
 preserveAspectRatio="xMidYMid meet">
<metadata>
Created by potrace 1.16, written by Peter Selinger 2001-2019
</metadata>
<g transform="translate(0.000000,443.000000) scale(0.100000,-0.100000)"
fill="#000000" stroke="none">
<path d="M3374 3930 c3 -19 35 -141 71 -270 36 -129 77 -279 92 -332 14 -54
30 -98 35 -98 5 0 7 8 4 18 -2 9 -14 53 -26 97 -12 44 -24 87 -27 95 -3 8 -7
22 -8 30 -1 8 -23 92 -49 185 -26 94 -49 179 -52 190 -3 11 22 -23 56 -75 34
-52 66 -96 71 -98 5 -2 9 -8 9 -14 0 -22 237 -338 273 -363 12 -8 18 -15 13
-15 -5 0 12 -24 36 -52 38 -45 47 -63 57 -122 7 -37 11 -70 9 -72 -2 -1 -38
47 -81 107 -43 60 -82 109 -86 109 -4 0 -8 6 -8 13 0 6 -24 50 -54 97 -48 76
-54 82 -57 58 -4 -33 -7 -34 -33 -9 -18 16 -18 19 -4 25 9 3 13 2 10 -4 -3 -6
-1 -10 4 -10 13 0 13 6 1 50 -9 34 -100 174 -100 154 1 -14 20 -97 27 -114 3
-8 8 -26 10 -40 2 -14 10 -34 18 -46 8 -12 10 -26 5 -34 -5 -8 -6 -18 -3 -24
4 -5 10 -1 15 10 6 14 7 11 4 -12 -6 -38 3 -76 16 -68 6 4 6 -9 2 -33 -5 -21
-8 -65 -8 -98 0 -33 -2 -51 -4 -40 -6 28 -22 44 -22 21 0 -10 18 -85 41 -168
22 -82 39 -151 37 -154 -3 -2 -40 58 -83 133 -44 75 -84 141 -90 147 -6 6 -16
25 -24 41 -8 19 -15 25 -18 17 -3 -8 -1 -24 5 -35 8 -17 76 -215 150 -437 3
-8 -13 2 -34 23 -22 20 -42 37 -45 37 -3 0 9 -64 28 -142 31 -131 34 -152 29
-253 -4 -69 -14 -137 -28 -184 l-22 -74 30 -57 c26 -50 28 -61 21 -104 -4 -27
-6 -50 -3 -53 5 -5 28 8 134 72 41 25 78 45 83 45 21 0 7 20 -18 26 -57 12
-59 15 -30 30 38 20 34 29 -18 44 -25 7 -45 15 -45 18 0 3 12 48 27 100 24 82
29 91 40 76 7 -10 13 -31 13 -46 0 -39 23 -92 61 -140 33 -41 35 -62 13 -173
l-6 -30 24 36 c13 20 33 51 46 70 17 25 22 45 20 76 -3 40 -2 42 17 29 20 -14
23 -32 9 -75 -7 -23 -6 -24 36 -17 l43 7 -5 -66 c-3 -36 -4 -65 -2 -65 3 0 21
7 40 15 23 9 50 13 74 9 37 -6 39 -5 59 35 12 22 47 69 80 103 32 35 70 86 85
115 29 59 34 79 10 44 -17 -24 -127 -81 -156 -81 -24 0 -24 44 0 78 11 15 35
56 56 92 27 49 30 58 11 35 -14 -16 -25 -33 -25 -37 0 -9 -55 -38 -72 -38 -7
0 7 18 32 41 36 32 38 36 11 18 -30 -20 -32 -20 -23 -3 6 10 57 69 114 131 98
105 157 195 161 244 1 10 5 19 10 19 5 0 7 9 4 20 -3 12 0 20 7 20 7 0 33 65
60 153 26 83 52 162 57 175 12 30 11 62 -1 62 -9 0 -15 -18 -41 -123 -17 -68
-24 -50 -10 24 7 33 10 63 8 65 -5 5 -170 -180 -175 -196 -2 -5 -21 -27 -43
-49 -26 -25 -38 -45 -33 -53 4 -7 3 -10 -1 -5 -5 4 -20 -3 -33 -15 -32 -29
-19 -6 28 52 20 25 77 97 125 160 48 63 92 121 98 128 6 8 5 12 -4 12 -8 0
-30 -22 -49 -48 -84 -113 -202 -263 -205 -260 -2 2 12 68 31 148 19 79 32 150
30 157 -3 7 -1 15 3 17 10 7 36 224 28 232 -3 4 -48 -79 -100 -182 -88 -175
-96 -187 -103 -159 -4 17 -23 89 -43 160 l-36 130 -33 3 c-38 4 -36 18 -13
-160 9 -76 16 -138 15 -138 -2 0 -33 59 -69 130 -42 83 -72 130 -82 130 -13 0
-15 -8 -10 -41 5 -40 5 -40 -15 -22 -31 27 -209 251 -275 345 -32 45 -100 148
-152 228 -73 113 -92 137 -87 110z m962 -712 c-16 -83 -121 -304 -131 -274 -3
9 -7 24 -10 33 -5 15 144 327 152 319 2 -2 -3 -37 -11 -78z m-575 -185 c37
-55 146 -193 164 -208 7 -6 16 -21 20 -35 7 -22 6 -23 -8 -12 -9 8 -54 63
-101 124 -98 125 -94 128 -76 -57 21 -210 22 -230 11 -220 -6 6 -18 89 -26
185 -8 96 -18 196 -21 223 -4 26 -4 47 -1 47 3 0 21 -21 38 -47z"/>
<path d="M1616 3189 c-12 -139 -74 -365 -145 -529 -22 -52 -38 -96 -36 -99 3
-2 27 0 53 7 26 6 82 18 124 27 42 9 83 22 92 28 9 8 17 35 19 74 5 58 4 62
-19 67 -26 7 -33 36 -9 36 8 0 15 -5 15 -11 0 -5 5 -7 11 -3 8 5 9 31 5 83
-13 144 -35 239 -83 351 l-20 45 -7 -76z"/>
<path d="M2674 3177 c-338 -355 -414 -435 -414 -442 0 -3 14 -4 31 0 22 5 29
4 25 -4 -4 -6 -22 -11 -39 -11 -27 0 -46 -14 -121 -89 -50 -51 -86 -94 -82
-100 4 -6 1 -11 -6 -11 -8 0 -45 -31 -83 -70 l-69 -70 78 0 c44 0 77 -3 73 -6
-3 -3 -40 -6 -81 -6 l-76 1 -103 -107 c-57 -59 -143 -150 -193 -202 -49 -52
-96 -102 -105 -110 -9 -8 -87 -91 -174 -183 -215 -230 -203 -232 55 -12 58 50
239 202 402 338 164 137 300 252 303 258 4 5 1 9 -5 9 -6 0 -8 5 -4 11 4 8 9
7 14 -2 7 -10 11 -10 24 0 21 17 20 27 -3 50 -12 12 -16 23 -10 32 7 11 15 8
35 -15 25 -28 25 -28 47 -9 12 10 68 59 125 107 79 68 102 94 103 115 1 16 3
20 6 9 2 -10 8 -18 11 -18 4 0 76 59 161 130 85 72 158 130 161 130 4 0 17
-11 30 -25 22 -23 25 -24 46 -10 28 18 96 87 131 133 l26 32 -114 115 c-63 63
-117 115 -120 115 -3 0 -42 -37 -85 -83z"/>
<path d="M1090 3205 c0 -3 13 -31 29 -63 15 -31 36 -78 46 -104 10 -27 21 -48
25 -48 4 0 10 -12 13 -27 4 -25 106 -277 122 -303 3 -6 11 -7 17 -4 15 9 70
132 107 238 31 87 66 278 57 303 -4 10 -51 13 -211 13 -113 0 -205 -2 -205 -5z"/>
<path d="M2923 2922 c-46 -48 -83 -87 -83 -88 -1 -5 310 -306 316 -304 5 1 11
-5 14 -14 3 -8 80 -91 172 -184 l167 -169 16 46 c9 25 19 92 22 148 l6 102
-128 131 c-71 71 -132 130 -136 130 -4 0 -11 -9 -14 -20 -4 -11 -10 -18 -15
-15 -4 3 -11 -3 -14 -12 -5 -12 -10 -13 -18 -5 -12 12 11 42 31 42 6 0 9 9 8
20 -4 25 -117 141 -129 134 -5 -3 -7 -2 -6 3 3 9 -112 143 -122 143 -3 -1 -42
-40 -87 -88z"/>
<path d="M1807 2793 c-3 -4 -5 -50 -6 -102 -2 -148 -24 -235 -105 -413 -14
-32 -22 -58 -18 -57 4 0 34 32 67 71 33 39 67 78 76 87 9 9 41 45 71 79 l55
64 -59 131 c-63 137 -72 154 -81 140z"/>
<path d="M2742 2603 c2 -4 -18 -28 -44 -52 -38 -35 -46 -47 -38 -61 8 -15 4
-20 -22 -31 -17 -7 -51 -28 -75 -46 -24 -18 -47 -33 -51 -33 -13 0 -92 -85
-92 -98 0 -7 -4 -11 -9 -8 -12 7 -181 -168 -181 -188 0 -9 -5 -16 -11 -16 -6
0 -27 -12 -46 -27 l-37 -28 35 -6 c33 -6 32 -6 -11 -8 -33 -1 -41 -4 -30 -11
12 -8 11 -10 -7 -10 -13 0 -23 -4 -23 -9 0 -9 34 -21 63 -21 10 0 16 4 13 9
-3 5 12 4 34 -1 21 -6 40 -17 42 -25 2 -13 7 -12 28 5 23 19 24 22 9 37 -9 10
-32 20 -50 24 -25 5 -30 9 -17 13 10 4 31 -3 53 -18 20 -13 39 -24 43 -24 4 0
25 16 47 36 22 20 32 33 23 30 -10 -3 -18 -1 -18 4 0 6 13 10 29 10 37 0 51
19 21 27 -16 4 -18 8 -8 14 10 7 10 11 1 17 -8 5 -8 12 2 25 11 15 13 16 19 2
3 -8 1 -15 -4 -15 -5 0 -7 -7 -3 -16 5 -13 8 -13 15 -2 7 10 8 9 6 -4 -5 -28
6 -25 60 17 50 38 63 55 42 55 -5 0 -10 9 -10 21 0 16 -4 19 -17 14 -10 -4
-26 -8 -37 -10 -10 -3 -23 -8 -30 -13 -18 -13 -72 -34 -61 -24 15 15 88 52
102 52 24 0 13 16 -27 39 -41 23 -58 41 -19 20 17 -9 23 -8 30 2 6 10 9 8 9
-8 0 -13 4 -23 10 -23 5 0 25 -16 44 -36 l35 -36 80 61 c44 34 85 61 91 61 10
0 480 -457 567 -551 48 -53 109 -73 192 -64 81 8 117 12 155 13 24 2 27 4 16
17 -11 13 -15 13 -21 3 -6 -9 -9 -7 -9 7 0 22 -429 457 -442 449 -5 -3 -7 0
-6 6 2 7 -8 14 -20 16 -27 5 -73 34 -54 34 26 0 9 29 -57 94 -64 63 -72 68
-88 55 -17 -13 -17 -13 -4 4 13 16 8 25 -55 88 -62 64 -188 162 -182 142z"/>
<path d="M1635 2585 c-33 -7 -91 -19 -130 -25 -88 -16 -93 -18 -106 -41 -9
-19 8 -67 126 -343 l17 -40 30 48 c39 64 82 173 113 287 26 97 30 130 18 128
-5 -1 -35 -7 -68 -14z"/>
<path d="M1910 2129 c-58 -50 -107 -93 -110 -97 -3 -4 -18 -17 -33 -29 -16
-12 -47 -39 -69 -59 l-40 -36 32 -76 c18 -43 37 -83 43 -90 8 -10 34 11 119
95 59 59 108 113 108 120 0 7 6 13 13 13 15 0 56 40 90 90 l24 35 -28 57 c-16
31 -32 59 -37 62 -4 2 -55 -36 -112 -85z"/>
<path d="M3733 1937 c-18 -12 -31 -28 -28 -34 3 -8 -4 -13 -16 -13 -12 0 -34
-9 -50 -21 -30 -21 -31 -39 -2 -39 8 0 29 -6 46 -14 42 -18 131 -45 136 -40 2
2 1 14 -3 27 -4 16 -16 27 -33 32 -20 5 -24 8 -13 15 8 5 18 6 22 4 4 -3 8 0
8 6 0 22 -23 100 -29 99 -3 0 -21 -10 -38 -22z"/>
<path d="M1763 1638 c-167 -167 -303 -307 -303 -311 0 -21 -5 -24 455 331 39
29 69 58 67 64 -1 5 2 7 7 4 6 -4 189 128 250 180 10 9 -8 13 -59 17 -30 3
-68 7 -85 11 -29 7 -43 -6 -332 -296z"/>
<path d="M3688 1752 c55 -57 77 -73 115 -83 26 -6 49 -10 51 -8 2 2 -3 24 -10
49 l-13 46 -83 27 c-135 46 -134 46 -60 -31z"/>
<path d="M2115 1714 c-27 -25 -82 -72 -121 -105 l-72 -60 -46 -186 c-26 -102
-45 -187 -43 -190 9 -9 87 30 91 45 3 10 13 67 22 129 10 62 21 110 25 108 3
-3 10 -52 14 -110 4 -58 9 -105 12 -105 2 0 28 11 57 24 l53 24 17 124 c9 67
19 134 22 147 5 24 5 24 -23 6 -27 -17 -27 -17 3 12 26 24 32 40 38 92 4 34
10 69 13 77 9 25 -10 15 -62 -32z"/>
<path d="M3271 1685 c0 -11 38 -168 84 -350 l83 -330 3 73 c1 39 4 84 5 100 1
15 3 91 4 170 l2 142 -74 87 c-40 48 -81 97 -90 108 -17 20 -17 20 -17 0z"/>
<path d="M3575 1486 c105 -102 193 -185 196 -186 4 0 25 50 48 112 l42 111
-73 75 -73 74 -115 -7 c-164 -10 -163 -10 -190 -2 -15 5 49 -64 165 -177z"/>
<path d="M2235 1637 c-19 -15 -17 7 -28 -380 -2 -73 0 -104 7 -97 5 5 16 10
24 10 10 0 6 -11 -12 -35 -25 -32 -27 -41 -24 -121 l3 -87 48 119 c30 72 45
120 38 122 -17 6 -13 23 5 20 11 -2 21 10 31 37 9 22 36 87 60 144 l44 105
-43 42 c-24 23 -46 40 -50 37 -5 -2 -8 4 -8 14 0 17 -57 83 -71 83 -3 0 -13
-6 -24 -13z"/>
<path d="M3490 1445 c0 -16 80 -577 87 -605 l6 -25 8 28 c4 15 22 98 40 184
34 161 40 168 54 63 10 -79 74 -411 84 -435 8 -21 16 61 27 312 l7 142 -119
132 c-65 72 -136 150 -156 173 -21 23 -38 37 -38 31z"/>
<path d="M2038 1243 c-45 -18 -45 -13 -22 -216 15 -142 19 -162 28 -136 4 12
56 349 56 364 0 9 -23 5 -62 -12z"/>
<path d="M1880 1174 c-14 -7 -32 -14 -41 -14 -25 0 -29 -41 -28 -304 0 -253 7
-273 34 -107 21 130 64 382 71 414 6 30 1 32 -36 11z"/>
<path d="M1690 1000 c-57 -67 -71 -88 -51 -76 5 3 11 -1 14 -9 4 -9 1 -12 -9
-8 -28 11 -14 -28 28 -72 23 -25 45 -45 49 -45 4 0 12 53 18 118 7 64 14 127
15 140 2 12 2 22 0 22 -2 0 -30 -32 -64 -70z"/>
</g>
</svg>
